<mxfile host="app.diagrams.net" agent="Mozilla/5.0 (Windows NT 10.0; Win64; x64) AppleWebKit/537.36 (KHTML, like Gecko) Chrome/135.0.0.0 Safari/537.36" version="26.2.13">
  <diagram name="Page-1" id="mgzc8XI1IKYOlTB-SLnl">
    <mxGraphModel dx="1107" dy="473" grid="1" gridSize="10" guides="1" tooltips="1" connect="1" arrows="1" fold="1" page="1" pageScale="1" pageWidth="850" pageHeight="1100" math="0" shadow="0">
      <root>
        <mxCell id="0" />
        <mxCell id="1" parent="0" />
        <mxCell id="P41ABgcNEcPSGHjOtAH7-9" value="" style="shape=cylinder3;whiteSpace=wrap;html=1;boundedLbl=1;backgroundOutline=1;size=15;" vertex="1" parent="1">
          <mxGeometry x="360" y="220" width="60" height="80" as="geometry" />
        </mxCell>
        <mxCell id="P41ABgcNEcPSGHjOtAH7-1" value="" style="shape=cube;whiteSpace=wrap;html=1;boundedLbl=1;backgroundOutline=1;darkOpacity=0.05;darkOpacity2=0.1;" vertex="1" parent="1">
          <mxGeometry x="160" y="140" width="120" height="80" as="geometry" />
        </mxCell>
        <mxCell id="P41ABgcNEcPSGHjOtAH7-2" value="Питание" style="text;html=1;align=center;verticalAlign=middle;whiteSpace=wrap;rounded=0;" vertex="1" parent="1">
          <mxGeometry x="200" y="170" width="60" height="30" as="geometry" />
        </mxCell>
        <mxCell id="P41ABgcNEcPSGHjOtAH7-3" value="" style="image;points=[];aspect=fixed;html=1;align=center;shadow=0;dashed=0;image=img/lib/allied_telesis/computer_and_terminals/Personal_Computer.svg;" vertex="1" parent="1">
          <mxGeometry x="495" y="153.2" width="82.49" height="111.8" as="geometry" />
        </mxCell>
        <mxCell id="P41ABgcNEcPSGHjOtAH7-5" value="Прибор измерения" style="text;html=1;align=center;verticalAlign=middle;whiteSpace=wrap;rounded=0;" vertex="1" parent="1">
          <mxGeometry x="365" y="320" width="60" height="30" as="geometry" />
        </mxCell>
        <mxCell id="P41ABgcNEcPSGHjOtAH7-7" value="" style="verticalLabelPosition=bottom;align=center;outlineConnect=0;dashed=0;html=1;verticalAlign=top;shape=mxgraph.pid.flow_sensors.flow_nozzle;rotation=-90;" vertex="1" parent="1">
          <mxGeometry x="365" y="255" width="50" height="10" as="geometry" />
        </mxCell>
        <UserObject label="" link="&#xa;draw.io&#xa;&#xa;" id="P41ABgcNEcPSGHjOtAH7-11">
          <mxCell style="shape=partialRectangle;whiteSpace=wrap;html=1;bottom=0;right=0;fillColor=none;" vertex="1" parent="1">
            <mxGeometry x="390" y="180.9" width="120" height="60" as="geometry" />
          </mxCell>
        </UserObject>
        <UserObject label="" link="&#xa;draw.io&#xa;&#xa;" id="P41ABgcNEcPSGHjOtAH7-12">
          <mxCell style="shape=partialRectangle;whiteSpace=wrap;html=1;bottom=0;right=0;fillColor=none;rotation=90;" vertex="1" parent="1">
            <mxGeometry x="319.8" y="146.6" width="33.4" height="106.6" as="geometry" />
          </mxCell>
        </UserObject>
      </root>
    </mxGraphModel>
  </diagram>
</mxfile>
